# xmcd
#
# Track frame offsets:
#	150
#	19021
#	44996
#	69611
#	100393
#	124141
#	143775
#	171597
#	193018
#	213141
#	244667
#	278617
#
# Disc length: 4107 seconds
#
# Revision: 0
# Processed by: cddbd v1.5.1PL2 Copyright (c) Steve Scherf et al.
# Submitted via: EasyCDDAExtractor 8.2.2.1
#
DISCID=b710090c
DTITLE=Marcel BOUNGOU EM' bEE and he Total Praise choir - It's all right
DYEAR=2005
DGENRE=Gospel
TTITLE0=Its all right
TTITLE1=Kombo nayo ekumama
TTITLE2=Ma prière
TTITLE3=We have a Father
TTITLE4=Près de Toi
TTITLE5=Come Holy Fire
TTITLE6=Days of Elijah
TTITLE7=La voix du bon berger 
TTITLE8=Above all
TTITLE9=Mwama Mpaté
TTITLE10=Mélodie venue du Ciel
TTITLE11=Il n'a personne comme Jésus
EXTD=
EXTT0=
EXTT1=
EXTT2=
EXTT3=
EXTT4=
EXTT5=
EXTT6=
EXTT7=
EXTT8=
EXTT9=
EXTT10=
EXTT11=
PLAYORDER=
